<svg width="78" height="21" viewBox="0 0 78 21" fill="none" xmlns="http://www.w3.org/2000/svg">
<path d="M0.319336 2.00684H3.29785V20H0.319336V2.00684ZM10.8174 11.8945H4.29883V9.89258H10.8174V11.8945ZM11.5742 2.00684V4.22852H4.29883V2.00684H11.5742ZM17.4824 20H14.5039V6.23047H17.4824V20ZM17.751 1.83594C17.751 2.32422 17.5801 2.73926 17.2383 3.08105C16.8965 3.40658 16.4814 3.56934 15.9932 3.56934C15.5049 3.56934 15.0898 3.39844 14.748 3.05664C14.4225 2.71484 14.2598 2.30794 14.2598 1.83594C14.2598 1.34766 14.4307 0.932617 14.7725 0.59082C15.1143 0.249023 15.5212 0.078125 15.9932 0.078125C16.4814 0.078125 16.8965 0.249023 17.2383 0.59082C17.5801 0.932617 17.751 1.34766 17.751 1.83594ZM24.5625 15.8008C24.5625 16.3542 24.6357 16.7936 24.7822 17.1191C24.9287 17.4284 25.1322 17.6644 25.3926 17.8271C25.653 17.9736 25.946 18.0713 26.2715 18.1201C26.6133 18.1689 26.9795 18.1934 27.3701 18.1934V20C27.1585 20.0326 26.9388 20.057 26.7109 20.0732C26.5319 20.0895 26.3203 20.0977 26.0762 20.0977C25.832 20.1139 25.5879 20.1221 25.3438 20.1221C25.0996 20.1221 24.8555 20.1139 24.6113 20.0977C24.3672 20.0814 24.1475 20.057 23.9521 20.0244C23.3988 19.9105 22.9674 19.6663 22.6582 19.292C22.349 18.9176 22.113 18.5026 21.9502 18.0469C21.7874 17.5749 21.6816 17.1191 21.6328 16.6797C21.6003 16.2402 21.584 15.8984 21.584 15.6543V15.3613V1.03027H24.5625V15.8008ZM34.4258 15.8252C34.4258 16.3786 34.499 16.8099 34.6455 17.1191C34.792 17.4284 34.9954 17.6644 35.2559 17.8271C35.5326 17.9899 35.8337 18.0957 36.1592 18.1445C36.501 18.1771 36.859 18.1934 37.2334 18.1934V20C37.0218 20.0326 36.8102 20.057 36.5986 20.0732C36.4196 20.0895 36.1999 20.0977 35.9395 20.0977C35.6953 20.1139 35.4512 20.1221 35.207 20.1221C34.9629 20.1221 34.7106 20.1139 34.4502 20.0977C34.2061 20.0814 33.9945 20.057 33.8154 20.0244C33.262 19.9268 32.8307 19.6908 32.5215 19.3164C32.2122 18.9258 31.9762 18.5026 31.8135 18.0469C31.667 17.5749 31.5693 17.1191 31.5205 16.6797C31.488 16.2402 31.4717 15.8984 31.4717 15.6543V8.23242H29.665V6.23047H31.4717V2.32422H34.4258V6.23047H36.623V8.23242H34.4258V15.8252ZM47.0967 6.1084C47.9756 6.18978 48.765 6.42578 49.4648 6.81641C50.181 7.20703 50.7913 7.71159 51.2959 8.33008C51.8005 8.94857 52.1829 9.65658 52.4434 10.4541C52.7201 11.2516 52.8584 12.0817 52.8584 12.9443C52.8584 13.335 52.834 13.7256 52.7852 14.1162H44.4111V11.9678H50.0508C50.0508 11.5446 49.9775 11.1377 49.8311 10.7471C49.7008 10.3564 49.4974 9.99837 49.2207 9.67285C48.9603 9.33105 48.651 9.04622 48.293 8.81836C47.9349 8.59049 47.5361 8.45215 47.0967 8.40332V6.1084ZM46.999 17.7051C47.1781 17.7051 47.3978 17.6888 47.6582 17.6562C47.9349 17.6074 48.2197 17.5342 48.5127 17.4365C48.8219 17.3226 49.123 17.1842 49.416 17.0215C49.7253 16.8587 49.9938 16.6634 50.2217 16.4355L51.2959 18.0713C50.7588 18.7386 50.1322 19.2432 49.416 19.585C48.6999 19.9268 47.7884 20.0977 46.6816 20.0977C45.7865 20.0977 44.9482 19.9186 44.167 19.5605C43.3857 19.1862 42.7184 18.6816 42.165 18.0469C41.6117 17.4121 41.1722 16.6715 40.8467 15.8252C40.5212 14.9788 40.3584 14.0674 40.3584 13.0908C40.3584 12.1631 40.5049 11.2842 40.7979 10.4541C41.1071 9.62402 41.5221 8.89974 42.043 8.28125C42.5638 7.64648 43.166 7.13379 43.8496 6.74316C44.5495 6.35254 45.2982 6.13281 46.0957 6.08398V8.42773C45.4935 8.54167 44.9971 8.78581 44.6064 9.16016C44.2158 9.53451 43.9066 9.96582 43.6787 10.4541C43.4671 10.9261 43.3125 11.4144 43.2148 11.9189C43.1335 12.4235 43.0928 12.8548 43.0928 13.2129C43.0928 13.8477 43.166 14.4417 43.3125 14.9951C43.4753 15.5322 43.7194 16.0042 44.0449 16.4111C44.3704 16.8018 44.7692 17.1191 45.2412 17.3633C45.7295 17.5911 46.3154 17.7051 46.999 17.7051ZM59.5479 6.23047L59.8652 7.64648V15.1172V15.166V20H56.9111V6.23047H59.5479ZM60.8662 6.84082C61.2731 6.61296 61.7614 6.44206 62.3311 6.32812C62.9007 6.19792 63.6738 6.13281 64.6504 6.13281V9.20898C64.1947 9.07878 63.6413 9.00553 62.9902 8.98926C62.6322 8.98926 62.266 9.02181 61.8916 9.08691C61.5335 9.13574 61.1917 9.21712 60.8662 9.33105V6.84082ZM67.4824 10.1611C67.4824 9.54264 67.5964 8.98926 67.8242 8.50098C68.0521 7.99642 68.3695 7.57324 68.7764 7.23145C69.1833 6.87337 69.639 6.59668 70.1436 6.40137C70.6644 6.18978 71.2015 6.05957 71.7549 6.01074V8.45215C71.3317 8.53353 70.998 8.70443 70.7539 8.96484C70.526 9.22526 70.4121 9.59147 70.4121 10.0635C70.4121 10.4541 70.5342 10.7715 70.7783 11.0156C71.0387 11.2435 71.3643 11.4469 71.7549 11.626V14.2383C71.4782 14.1569 71.1934 14.0674 70.9004 13.9697C70.6237 13.8558 70.347 13.7337 70.0703 13.6035C69.2077 13.1478 68.5566 12.6676 68.1172 12.1631C67.694 11.6585 67.4824 10.9912 67.4824 10.1611ZM75.6367 9.13574C75.1973 8.90788 74.7253 8.73698 74.2207 8.62305C73.7324 8.50911 73.2441 8.43587 72.7559 8.40332V5.98633C73.4883 6.01888 74.1637 6.12467 74.7822 6.30371C75.4007 6.46647 76.0029 6.73503 76.5889 7.10938L75.6367 9.13574ZM68.7764 16.9238C69.1019 17.1517 69.4844 17.3633 69.9238 17.5586C70.3796 17.7539 70.9492 17.8516 71.6328 17.8516H71.7549V20.1221C71.348 20.1221 70.9736 20.1058 70.6318 20.0732C70.29 20.057 69.9482 20.0081 69.6064 19.9268C69.2809 19.8291 68.9473 19.6989 68.6055 19.5361C68.2637 19.3734 67.9056 19.1618 67.5312 18.9014L68.7764 16.9238ZM72.7559 12.0166C73.2441 12.1794 73.7406 12.3584 74.2451 12.5537C74.7497 12.749 75.2054 12.9932 75.6123 13.2861C76.0355 13.5791 76.3773 13.9453 76.6377 14.3848C76.9144 14.8079 77.0527 15.3451 77.0527 15.9961C77.0527 16.6309 76.9388 17.1842 76.7109 17.6562C76.4831 18.1283 76.1738 18.5352 75.7832 18.877C75.4089 19.2188 74.9613 19.4873 74.4404 19.6826C73.9196 19.8779 73.3581 20.0081 72.7559 20.0732V17.7539C73.3092 17.6562 73.7324 17.4854 74.0254 17.2412C74.3346 16.9808 74.4893 16.639 74.4893 16.2158C74.4893 15.7926 74.3184 15.4671 73.9766 15.2393C73.651 14.9951 73.2441 14.7835 72.7559 14.6045V12.0166Z" fill="black"/>
</svg>
