<svg width="14" height="14" viewBox="0 0 14 14" fill="none" xmlns="http://www.w3.org/2000/svg">
<path d="M13.2133 1.95389H5.18145C4.96063 1.29805 4.3403 0.824219 3.61095 0.824219C2.8816 0.824219 2.26127 1.29805 2.04045 1.95389H0.786743C0.495509 1.95389 0.259399 2.19 0.259399 2.48124C0.259399 2.77247 0.495509 3.00858 0.786743 3.00858H2.04049C2.2613 3.66442 2.88163 4.13826 3.61099 4.13826C4.34034 4.13826 4.96067 3.66442 5.18149 3.00858H13.2133C13.5046 3.00858 13.7407 2.77247 13.7407 2.48124C13.7407 2.19 13.5046 1.95389 13.2133 1.95389ZM3.61095 3.08357C3.27883 3.08357 3.00862 2.81336 3.00862 2.48124C3.00862 2.14912 3.27883 1.87891 3.61095 1.87891C3.94307 1.87891 4.21328 2.14912 4.21328 2.48124C4.21328 2.81336 3.94307 3.08357 3.61095 3.08357Z" fill="#A18A68"/>
<path d="M13.2133 6.47269H11.9595C11.7387 5.81685 11.1184 5.34302 10.389 5.34302C9.65972 5.34302 9.03939 5.81685 8.81857 6.47269H0.786743C0.495509 6.47269 0.259399 6.7088 0.259399 7.00004C0.259399 7.29127 0.495509 7.52738 0.786743 7.52738H8.81857C9.03939 8.18322 9.65976 8.65706 10.3891 8.65706C11.1184 8.65706 11.7388 8.18322 11.9596 7.52738H13.2133C13.5046 7.52738 13.7407 7.29127 13.7407 7.00004C13.7407 6.7088 13.5046 6.47269 13.2133 6.47269ZM10.3891 7.60237C10.057 7.60237 9.78674 7.33216 9.78674 7.00004C9.78674 6.66792 10.057 6.39771 10.3891 6.39771C10.7212 6.39771 10.9914 6.66792 10.9914 7.00004C10.9914 7.33216 10.7212 7.60237 10.3891 7.60237Z" fill="#A18A68"/>
<path d="M13.2133 10.9915H7.44084C7.22002 10.3357 6.59969 9.86182 5.87034 9.86182C5.14099 9.86182 4.52065 10.3357 4.29984 10.9915H0.786743C0.495509 10.9915 0.259399 11.2276 0.259399 11.5188C0.259399 11.8101 0.495509 12.0462 0.786743 12.0462H4.29984C4.52065 12.702 5.14099 13.1759 5.87034 13.1759C6.59969 13.1759 7.22002 12.702 7.44084 12.0462H13.2133C13.5046 12.0462 13.7407 11.8101 13.7407 11.5188C13.7407 11.2276 13.5046 10.9915 13.2133 10.9915ZM5.87034 12.1212C5.53822 12.1212 5.268 11.851 5.268 11.5189C5.268 11.1868 5.53822 10.9165 5.87034 10.9165C6.20246 10.9165 6.47267 11.1867 6.47267 11.5188C6.47267 11.851 6.20246 12.1212 5.87034 12.1212Z" fill="#A18A68"/>
</svg>
