<svg width="7" height="13" viewBox="0 0 7 13" fill="none" xmlns="http://www.w3.org/2000/svg">
<path d="M0.198986 1.94725C0.145775 1.89447 0.115845 1.82263 0.115845 1.74769C0.115845 1.67274 0.145775 1.6009 0.198986 1.54812L0.794866 0.952242C0.845872 0.897895 0.917086 0.867065 0.991619 0.867065C1.06615 0.867065 1.13737 0.897895 1.18837 0.952242L6.35454 6.11841C6.43363 6.1974 6.47811 6.30457 6.47821 6.41635V6.56251C6.47811 6.67429 6.43363 6.78146 6.35454 6.86045L1.18837 12.0266C1.13737 12.081 1.06615 12.1118 0.991619 12.1118C0.917086 12.1118 0.845872 12.081 0.794866 12.0266L0.198986 11.4307C0.145775 11.378 0.115845 11.3061 0.115845 11.2312C0.115845 11.1562 0.145775 11.0844 0.198986 11.0316L4.74117 6.48943L0.198986 1.94725Z" fill="black"/>
</svg>
